<?xml version="1.0" encoding="utf-8"?><!DOCTYPE svg PUBLIC "-//W3C//DTD SVG 1.1//EN" "http://www.w3.org/Graphics/SVG/1.1/DTD/svg11.dtd"><svg width="614" height="614" viewBox="0 0 614 614" xmlns="http://www.w3.org/2000/svg" xmlns:xlink="http://www.w3.org/1999/xlink"><svg version="1.2" baseProfile="tiny" width="40" height="40" viewBox="9 -10 40 40" id="arrow-l"><path fill="#F5F5F5" d="M29-8.7C39.3-8.7 47.7-.3 47.7 10c0 10.3-8.4 18.7-18.7 18.7-10.3 0-18.7-8.4-18.7-18.7C10.3-.3 18.7-8.7 29-8.7m0-1.3C17.9-10 9.1-1.1 9 10c-.1 10.7 8.9 20 20 20s20-8.9 20-20-9-20-20-20z"/><path fill="#F5F5F5" d="M21.7 10l11.5-8.2c.3-.2.4-.7.2-1.1-.2-.4-.7-.5-1.1-.3L19.9 9.3c-.2.2-.3.4-.3.7 0 .3.2.5.3.6l12.5 8.9c.1.1.2.2.3.2.3 0 .5-.2.6-.3.3-.4.2-1-.1-1.2L21.7 10zm11.4 8.5z"/></svg><svg version="1.2" baseProfile="tiny" width="21" height="21" viewBox="0 0 21 21" id="arrow-left" x="40" y="40"><path fill="#D7D7D7" d="M7.9 2.6l-7.9 8 7.9 7.8v-5.3H21V7.8H7.9V2.6z"/></svg><svg version="1.2" baseProfile="tiny" width="40" height="40" viewBox="9 -10 40 40" id="arrow-r" x="61" y="61"><path fill="#F5F5F5" d="M29-8.7C39.3-8.7 47.7-.3 47.7 10c0 10.3-8.4 18.7-18.7 18.7-10.3 0-18.7-8.4-18.7-18.7C10.3-.3 18.7-8.7 29-8.7m0-1.3C17.9-10 9.1-1.1 9 10c-.1 10.7 8.9 20 20 20s20-8.9 20-20-9-20-20-20z"/><path fill="#F5F5F5" d="M38 9.3L25.6.4c-.4-.2-.9-.1-1.1.3-.3.4-.2.9.2 1.1L36.2 10l-11.5 8.2c-.3.2-.4.8-.1 1.2.1.1.3.3.6.3.1 0 .3-.1.3-.2L38 10.6c.1-.1.3-.3.3-.6s-.1-.6-.3-.7z"/></svg><svg version="1.2" baseProfile="tiny" width="21" height="21" viewBox="0 0 21 21" id="arrow-right" x="101" y="101"><path fill="#D7D7D7" d="M13.1 2.6v5.3H0v5.3h13.1v5.3l7.9-8-7.9-7.9z"/></svg><svg version="1.2" baseProfile="tiny" width="21" height="21" viewBox="-283.5 386.5 21 21" id="behance" x="122" y="122"><path fill="#F8F8F8" d="M-264.6 391.3h-5.2v1.3h5.2v-1.3zm-2.5 4.4c-.6 0-1.1.2-1.5.5-.4.4-.6.8-.6 1.5h4.2c-.2-1.4-.9-2-2.1-2zm.1 6c.4 0 .8-.1 1.3-.3.4-.2.7-.5.8-.9h2.3c-.7 2.1-2.1 3.1-4.4 3.1-1.5 0-2.6-.5-3.5-1.4-.9-.9-1.3-2.1-1.3-3.6 0-1.4.4-2.6 1.3-3.5.9-.9 2-1.4 3.5-1.4.9 0 1.8.2 2.5.7.7.5 1.2 1.1 1.6 1.8.3.8.5 1.6.5 2.5v.5h-6.7c0 .8.2 1.3.6 1.8s.8.7 1.5.7zm-13.7-.6h3c1.4 0 2.1-.6 2.1-1.7 0-1.2-.7-1.8-2-1.8h-3.1v3.5zm0-5.5h2.9c.5 0 1-.1 1.3-.4.3-.2.5-.6.5-1.2 0-1-.6-1.5-1.9-1.5h-2.7l-.1 3.1zm-2.8-5.2h6.1c.6 0 1.1 0 1.6.1s.9.3 1.3.5.7.6.9 1c.2.4.3 1 .3 1.6 0 1.2-.6 2.1-1.8 2.7.8.2 1.4.6 1.8 1.2.4.6.6 1.3.6 2.1 0 .5-.1 1-.3 1.4-.2.4-.4.8-.7 1.1-.3.3-.6.5-1 .7-.4.2-.8.3-1.2.4-.4.1-.9.1-1.4.1h-6.3l.1-12.9z"/></svg><svg version="1.2" baseProfile="tiny" width="21" height="21" viewBox="0 0 21 21" id="chart" x="143" y="143"><path fill="#D7D7D7" d="M0 0v21h21v-3H2.6V0H0zm13.1 0v15h5.3V0h-5.3zM5.2 6v9.1h5.3V6H5.2z"/></svg><svg version="1.2" baseProfile="tiny" width="23" height="23" viewBox="-294 385 23 23" id="close" x="164" y="164"><path fill="#F8F8F8" d="M-289.8 385l-4.2 4.2 2.2 2.2 5.2 5.3-5.2 5.2-2.2 2 4.2 4.2 2.2-2.2 5.3-5.3 5.2 5.3 2 2.2 4.2-4.2-2.2-2-5.3-5.2 5.3-5.3 2.2-2.2-4.2-4.2-2 2.2-5.2 5.2-5.2-5.2c-.3 0-2.3-2.2-2.3-2.2z"/></svg><svg version="1.2" baseProfile="tiny" width="14" height="14" viewBox="-288 390 14 14" id="close-search" x="187" y="187"><path fill="#999" d="M-279.2 394.2l-1.8 1.8-1.8-1.8-1 1 1.8 1.8-1.8 1.8 1 1 1.8-1.8 1.8 1.8 1-1-1.8-1.8 1.8-1.8-1-1zm-1.8-4.2c-3.9 0-7 3.1-7 7s3.1 7 7 7 7-3.1 7-7-3.1-7-7-7zm0 12.6c-3.1 0-5.6-2.5-5.6-5.6s2.5-5.6 5.6-5.6 5.6 2.5 5.6 5.6-2.5 5.6-5.6 5.6z"/></svg><svg version="1.2" baseProfile="tiny" width="21" height="21" viewBox="-287.5 386.5 21 21" id="dribbble" x="201" y="201"><path fill="#F8F8F8" d="M-273.5 405.3c-.4-2.2-1-4.5-1.9-6.8-.1.1-.3.1-.6.2s-.7.3-1.4.7c-.7.4-1.3.7-1.9 1.1-.6.4-1.2.9-1.8 1.6-.6.6-1.1 1.3-1.4 2l-.2-.2c1.7 1.4 3.6 2.1 5.7 2.1 1.2 0 2.4-.3 3.5-.7zm-2.5-8.3c-.2-.4-.4-1-.7-1.5-2.8.8-5.9 1.3-9.2 1.3v.3c0 1.1.2 2.2.6 3.2s1 1.9 1.7 2.8c.5-.8 1-1.6 1.7-2.3s1.3-1.3 1.9-1.7c.6-.4 1.2-.8 1.8-1.1l1.4-.7.5-.2h.2c0-.1 0-.1.1-.1zm-1.5-2.9c-1.1-1.9-2.2-3.7-3.3-5.2-1.3.6-2.3 1.4-3.2 2.5-.9 1.1-1.5 2.3-1.8 3.7 2.8.1 5.5-.3 8.3-1zm9.4 4.3c-1.9-.5-3.8-.7-5.6-.4.8 2.2 1.4 4.3 1.8 6.4 1-.7 1.9-1.5 2.5-2.6s1.1-2.1 1.3-3.4zm-11-10.1c-.1 0-.1 0 0 0-.1 0-.1 0 0 0zm8 2c-1.7-1.5-3.7-2.2-5.9-2.2-.7 0-1.4.1-2.1.3 1.2 1.5 2.3 3.3 3.4 5.2.6-.2 1.2-.5 1.8-.8s1-.6 1.3-.8c.3-.2.6-.5.9-.8.3-.3.4-.5.5-.6l.1-.3zm3.1 6.6c0-2.1-.7-4-2-5.6l-.3.3-.6.6c-.3.3-.6.6-1 .8-.3.3-.8.6-1.4.9l-1.8.9c.2.5.4.9.6 1.3 0 .1 0 .1.1.2s.1.2.1.2c.3 0 .7-.1 1-.1h1.9c.3 0 .6 0 .9.1.3 0 .5 0 .8.1.2 0 .5.1.7.1.2 0 .4.1.5.1s.3 0 .3.1h.2zm1.5.1c0 1.9-.5 3.7-1.4 5.3-.9 1.6-2.2 2.9-3.8 3.8s-3.4 1.4-5.3 1.4-3.7-.5-5.3-1.4-2.9-2.2-3.8-3.8-1.4-3.4-1.4-5.3.5-3.7 1.4-5.3 2.2-2.9 3.8-3.8c1.6-.9 3.4-1.4 5.3-1.4s3.7.5 5.3 1.4c1.6.9 2.9 2.2 3.8 3.8.9 1.6 1.4 3.4 1.4 5.3z"/></svg><svg version="1.2" baseProfile="tiny" width="21" height="21" viewBox="0 0 21 21" id="facebook" x="222" y="222"><path fill="#F8F8F8" d="M5.4 7h2.2V4.9c0-.9 0-2.4.7-3.3C9.2.7 10.1 0 11.8 0c2.8 0 3.9.4 3.9.4l-.5 3.3s-.9-.3-1.7-.3c-.8 0-1.6.3-1.6 1.2v2.5h3.4l-.3 3.1h-3.3V21H7.6V10.1H5.3V7h.1z"/></svg><svg version="1.2" baseProfile="tiny" width="21" height="21" viewBox="-295 386 21 21" id="facebook-c" x="243" y="243"><path fill="#3B5998" d="M-289.6 393h2.2v-2.1c0-.9 0-2.4.7-3.3.9-.9 1.8-1.6 3.5-1.6 2.8 0 3.9.4 3.9.4l-.5 3.3s-.9-.3-1.7-.3-1.6.3-1.6 1.2v2.5h3.4l-.3 3.1h-3.3V407h-4.1v-10.9h-2.3V393h.1z"/></svg><svg version="1.2" baseProfile="tiny" width="21" height="21" viewBox="-295 386 21 21" id="google" x="264" y="264"><path fill="#F8F8F8" d="M-281.5 386.1h-5c-2.2 0-3.8.5-5.1 1.6-1 .9-1.7 2.4-1.7 3.7 0 2.1 1.6 4.3 4.6 4.3h.9v.1c-.1.3-.3.5-.3.9 0 .8.4 1.3.8 1.8h-.1c-1.2.1-3.5.3-5.1 1.3-2 1.2-2.1 2.9-2.1 3.3 0 2 1.8 3.9 5.9 3.9 4.7 0 7.2-2.6 7.2-5.1 0-1.8-1-2.9-2.4-3.8l-1-.8c-.3-.3-.7-.5-.7-1.3 0-.5.4-.9.8-1.3 1-.8 2.4-1.8 2.4-3.9 0-2.1-1.3-3.1-2-3.7h1.7l1.4-.9c-.2 0-.2 0-.2-.1zm-6.3 19.8c-2.9 0-4.9-1.3-4.9-3.3 0-1.3.8-2.2 2.4-2.8 1.2-.4 2.9-.4 2.9-.4h.7c2 1.4 3 2.2 3 3.7 0 1.8-1.5 2.8-4.1 2.8zm0-11c-2.4 0-3.4-3.1-3.4-4.9 0-.9.1-1.6.7-2 .4-.5 1.2-.9 2-.9 2.2 0 3.4 3 3.4 5 0 .3 0 1.3-.7 2-.6.5-1.3.8-2 .8zM-274.7 395.9h-2.6v-2.6s0-.1-.1-.1h-1s-.1 0-.1.1v2.6h-2.6s-.1 0-.1.1v1.2s0 .1.1.1h2.6v2.6s0 .1.1.1h1.2s.1 0 .1-.1v-2.6h2.6s.1 0 .1-.1l-.3-1.3c.2 0 .2 0 0 0z"/></svg><svg id="google-c" width="21" height="21" viewBox="-295 386 21 21" x="285" y="285"><style>.amst0{fill:#d94734}</style><path class="amst0" d="M-281.5 386.1h-5c-2.2 0-3.8.5-5.1 1.6-1 .9-1.7 2.4-1.7 3.7 0 2.1 1.6 4.3 4.6 4.3h.9v.1c-.1.3-.3.5-.3.9 0 .8.4 1.3.8 1.8h-.1c-1.2.1-3.5.3-5.1 1.3-2 1.2-2.1 2.9-2.1 3.3 0 2 1.8 3.9 5.9 3.9 4.7 0 7.2-2.6 7.2-5.1 0-1.8-1-2.9-2.4-3.8l-1-.8c-.3-.3-.7-.5-.7-1.3 0-.5.4-.9.8-1.3 1-.8 2.4-1.8 2.4-3.9 0-2.1-1.3-3.1-2-3.7h1.7l1.4-.9c-.2 0-.2 0-.2-.1zm-6.3 19.8c-2.9 0-4.9-1.3-4.9-3.3 0-1.3.8-2.2 2.4-2.8 1.2-.4 2.9-.4 2.9-.4h.7c2 1.4 3 2.2 3 3.7 0 1.8-1.5 2.8-4.1 2.8zm0-11c-2.4 0-3.4-3.1-3.4-4.9 0-.9.1-1.6.7-2 .4-.5 1.2-.9 2-.9 2.2 0 3.4 3 3.4 5 0 .3 0 1.3-.7 2-.6.5-1.3.8-2 .8zM-274.7 395.9h-2.6v-2.6s0-.1-.1-.1h-1s-.1 0-.1.1v2.6h-2.6s-.1 0-.1.1v1.2s0 .1.1.1h2.6v2.6s0 .1.1.1h1.2s.1 0 .1-.1v-2.6h2.6s.1 0 .1-.1l-.3-1.3c.2 0 .2 0 0 0z"/></svg><svg viewBox="0 0 21 21" fill-rule="evenodd" clip-rule="evenodd" stroke-linejoin="round" stroke-miterlimit="1.414" width="21" height="21" id="in" x="306" y="306"><path d="M17.894 17.894h-3.112v-4.873c0-1.162-.021-2.657-1.619-2.657-1.62 0-1.869 1.266-1.869 2.573v4.957H8.182V7.873h2.987v1.369h.042c.416-.788 1.432-1.618 2.947-1.618 3.154 0 3.736 2.075 3.736 4.773v5.497zM4.672 6.503a1.807 1.807 0 1 1 0-3.614 1.807 1.807 0 0 1 0 3.614zm1.556 11.391H3.114V7.873h3.114v10.021zM19.446 0H1.55C.695 0 0 .678 0 1.513v17.971c0 .837.695 1.515 1.55 1.515h17.896c.856 0 1.554-.678 1.554-1.515V1.513C21 .678 20.302 0 19.446 0z" fill="#fff" fill-rule="nonzero"/></svg><svg viewBox="0 0 21 21" fill-rule="evenodd" clip-rule="evenodd" stroke-linejoin="round" stroke-miterlimit="1.414" width="21" height="21" id="instagram" x="327" y="327"><path d="M16.919 0H4.081C1.891 0 0 1.8 0 4.1v13C0 19.2 1.791 21 4.081 21h12.838C19.109 21 21 19.2 21 16.9V4.1C21 1.8 19.209 0 16.919 0zm1.195 2.4h.497V6h-3.483V2.5l2.986-.1zm-10.55 6c.697-1 1.791-1.6 2.986-1.6 1.194 0 2.388.7 2.986 1.6.398.7.696 1.3.696 2.1a3.683 3.683 0 1 1-7.365 0c0-.8.299-1.6.697-2.1zm11.346 8.5c0 1.1-.896 2-1.991 2H4.081c-1.095 0-1.991-.9-1.991-2V8.4h3.085c-.398.7-.497 1.3-.497 2.1 0 3.1 2.587 5.8 5.772 5.8s5.773-2.6 5.773-5.8c0-.8-.1-1.4-.398-2.1h3.085v8.5z" fill="#f8f8f8" fill-rule="nonzero"/></svg><svg version="1.2" baseProfile="tiny" width="21" height="21" viewBox="0 0 21 21" id="link" x="348" y="348"><path fill="#D7D7D7" d="M15.4.1c-.5 0-.9.1-1.4.3-.7.3-1.4.7-2 1.2-.7.4-.8 1.2-.4 1.8.4.7 1.2.8 1.8.4l.4-.4c.3-.3.7-.4 1-.5.9-.3 2.1-.1 2.7.5 1 1 1 2.7 0 3.8l-3.9 3.9c-1.2 1.2-2.1 1.3-2.7 1.2-.7-.1-1-.4-1-.4-.7-.4-1.4-.1-1.8.5-.4.7-.1 1.4.5 1.8 0 0 .9.5 2.2.7 1.3.1 3.1-.4 4.7-2.1l3.9-3.9c2.1-2.1 2.1-5.3 0-7.4C18.6.7 17.8.3 16.9.1h-1.5zm-5.2 6.1c-1.3 0-3.1.4-4.7 2l-3.9 3.9c-2.1 2.1-2.1 5.3 0 7.4 1.4 1.4 3.5 1.8 5.3 1.2.7-.3 1.4-.7 2-1.2.7-.4.8-1.2.4-1.8-.4-.7-1.2-.8-1.8-.4l-.4.4c-.3.3-.7.4-1 .5-.9.3-2.1.1-2.7-.5-1-1-1-2.7 0-3.8L7.3 10c1-1 2-1.2 2.7-1.2.8 0 1.2.3 1.2.3.5.4 1.4.3 1.8-.3.4-.5.3-1.4-.3-1.8-.1-.1-.3-.1-.4-.3 0 .1-.8-.5-2.1-.5z"/></svg><svg version="1.2" baseProfile="tiny" width="21" height="21" viewBox="0 0 21 21" id="location" x="369" y="369"><path fill="#D7D7D7" d="M10.5 0C6.2 0 2.6 3.5 2.6 7.9c0 5.3 7.9 13.1 7.9 13.1s7.9-7.9 7.9-13.1c0-4.4-3.6-7.9-7.9-7.9zm0 2.6c2.9 0 5.3 2.4 5.3 5.3s-2.4 5.3-5.3 5.3-5.3-2.4-5.3-5.3 2.4-5.3 5.3-5.3z"/></svg><svg version="1.2" baseProfile="tiny" width="21" height="21" viewBox="-299.5 386.5 21 21" id="pinterest" x="390" y="390"><path fill="#F8F8F8" d="M-289 386.5c-5.8 0-10.5 4.7-10.5 10.5 0 4.5 2.8 8.3 6.7 9.7-.1-.8-.1-2.1 0-3 .1-.8 1.2-5.3 1.2-5.3s-.3-.5-.3-1.4c0-1.4.9-2.6 2-2.6.9 0 1.3.7 1.3 1.4 0 .9-.5 2.2-.9 3.5-.3 1.1.5 1.8 1.6 1.8 1.8 0 3.3-2 3.3-4.9 0-2.5-1.8-4.3-4.3-4.3-3 0-4.7 2.2-4.7 4.6 0 .9.4 1.8.8 2.4v.5c-.1.4-.3 1.1-.3 1.2 0 .1-.1.3-.4.1-1.3-.7-2.1-2.5-2.1-4.1 0-3.3 2.4-6.3 7-6.3 3.7 0 6.4 2.6 6.4 6 0 3.7-2.2 6.6-5.5 6.6-1 0-2.1-.5-2.4-1.2 0 0-.5 2-.7 2.5-.3.9-.9 2.1-1.3 2.8 1 .3 2.1.4 3.1.4 5.8 0 10.5-4.7 10.5-10.5s-4.7-10.4-10.5-10.4z"/></svg><svg version="1.2" baseProfile="tiny" width="21" height="21" viewBox="0 0 21 21" id="pinterest-c" x="411" y="411"><path fill="#BE091C" d="M10.5 0C4.7 0 0 4.8 0 10.5c0 4.5 2.8 8.3 6.7 9.7-.1-.8-.1-2.1 0-3 .1-.7 1.2-5.2 1.2-5.2s-.3-.5-.3-1.4c0-1.4.9-2.6 2-2.6.9 0 1.3.7 1.3 1.4 0 .9-.5 2.2-.9 3.5-.3 1.1.5 1.8 1.6 1.8 1.8 0 3.3-2 3.3-4.9 0-2.5-1.8-4.3-4.3-4.3-3 0-4.7 2.2-4.7 4.6 0 .9.4 1.8.8 2.4v.5c-.1.4-.3 1.1-.3 1.2s-.1.3-.4.1c-1.3-.7-2.1-2.5-2.1-4.1 0-3.3 2.4-6.3 7-6.3 3.7 0 6.4 2.6 6.4 6 0 3.7-2.2 6.6-5.5 6.6-1 0-2.1-.5-2.4-1.2 0 0-.5 2-.7 2.5-.3.9-.9 2.1-1.3 2.8 1 .3 2.1.4 3.1.4C16.3 21 21 16.3 21 10.5S16.3 0 10.5 0z"/></svg><svg version="1.2" baseProfile="tiny" width="14" height="14" viewBox="-288 390 14 14" id="search" x="432" y="432"><path fill="#999" d="M-278 398.8h-.6l-.2-.2c.8-.9 1.3-2.1 1.3-3.4 0-2.9-2.3-5.2-5.2-5.2-2.9 0-5.2 2.3-5.2 5.2 0 2.9 2.3 5.2 5.2 5.2 1.3 0 2.5-.5 3.4-1.3l.2.2v.6l4 4 1.2-1.2-4.1-3.9zm-4.8 0c-2 0-3.6-1.6-3.6-3.6s1.6-3.6 3.6-3.6 3.6 1.6 3.6 3.6-1.6 3.6-3.6 3.6z"/></svg><svg viewBox="0 0 21 21" fill-rule="evenodd" clip-rule="evenodd" stroke-linejoin="round" stroke-miterlimit="1.414" width="21" height="21" id="tumblr" x="446" y="446"><path d="M16.646 19.702c-.71.759-2.357 1.274-3.832 1.298h-.162c-4.954 0-6.03-3.642-6.03-5.768V9.325H4.67a.411.411 0 0 1-.409-.409v-2.79c0-.293.186-.556.463-.654C7.267 4.576 8.065 2.356 8.183.669 8.215.219 8.451 0 8.842 0h2.909a.41.41 0 0 1 .409.409v4.724h3.406a.41.41 0 0 1 .409.408v3.352a.41.41 0 0 1-.409.409h-3.421v5.463c0 1.371.904 1.75 1.462 1.75a4.11 4.11 0 0 0 1.327-.282c.196-.079.369-.131.523-.092.144.035.238.137.302.323l.902 2.636c.073.211.136.44-.015.602z" fill="#fff" fill-rule="nonzero"/></svg><svg viewBox="0 0 21 21" fill-rule="evenodd" clip-rule="evenodd" stroke-linejoin="round" stroke-miterlimit="1.414" width="21" height="21" id="twitch" x="467" y="467"><path d="M10.5 5.485v5.479H8.619V5.485H10.5zm5.015 0v5.479h-1.881V5.485h1.881zm3.134 6.425l-3.134 3.135H10.5l-2.664 2.664v-2.664H3.604V1.881h15.045V11.91zM1.881 0L.47 3.604v14.732h5.015V21h2.821l2.664-2.664h4.075l5.485-5.485V0H1.881z" fill="#fff"/></svg><svg version="1.2" baseProfile="tiny" width="21" height="21" viewBox="0 0 21 21" id="twitter" x="488" y="488"><path fill="#F8F8F8" d="M21 4c-.8.4-1.6.5-2.5.7.9-.5 1.6-1.3 1.8-2.4-.8.5-1.7.8-2.8 1-.8-.8-2-1.3-3.1-1.3-2.2 0-4.2 2-4.2 4.3 0 .4 0 .7.1.9-3.5-.1-6.8-1.8-8.9-4.5C1 3.4.9 4 .9 4.8c0 1.4.8 2.8 2 3.5-.7 0-1.3-.3-2-.5 0 2.1 1.4 3.8 3.4 4.2-.4.3-.8.3-1.2.3-.3 0-.5 0-.8-.1.5 1.7 2.1 3 4.1 3C5 16.4 3.1 17 1 17H0c2 1.2 4.2 2 6.6 2 7.9 0 12.2-6.6 12.2-12.2v-.5C19.7 5.7 20.5 5 21 4z"/></svg><svg version="1.2" baseProfile="tiny" width="21" height="21" viewBox="-295 386 21 21" id="twitter-c" x="509" y="509"><path fill="#55ACEE" d="M-274 390c-.8.4-1.6.5-2.5.7.9-.5 1.6-1.3 1.8-2.4-.8.5-1.7.8-2.8 1-.8-.8-2-1.3-3.1-1.3-2.2 0-4.2 2-4.2 4.3 0 .4 0 .7.1.9-3.5-.1-6.8-1.8-8.9-4.5-.4.7-.5 1.3-.5 2.1 0 1.4.8 2.8 2 3.5-.7 0-1.3-.3-2-.5 0 2.1 1.4 3.8 3.4 4.2-.4.3-.8.3-1.2.3-.3 0-.5 0-.8-.1.5 1.7 2.1 3 4.1 3-1.4 1.2-3.3 1.8-5.4 1.8h-1c2 1.2 4.2 2 6.6 2 7.9 0 12.2-6.6 12.2-12.2v-.5c.9-.6 1.7-1.3 2.2-2.3z"/></svg><svg version="1.2" baseProfile="tiny" width="21" height="21" viewBox="0 0 21 21" id="vk" x="530" y="530"><path fill="#F8F8F8" d="M18.62 9.518c.298-.386.535-.695.71-.93 1.261-1.676 1.808-2.746 1.64-3.213l-.065-.11c-.044-.065-.157-.126-.34-.18-.181-.055-.415-.064-.699-.028l-3.149.023a.897.897 0 0 0-.36.037l-.055.028-.044.033a.484.484 0 0 0-.12.115.744.744 0 0 0-.11.191 17.831 17.831 0 0 1-1.17 2.46c-.27.452-.517.844-.743 1.175a5.613 5.613 0 0 1-.568.733 3.938 3.938 0 0 1-.416.377c-.124.095-.219.135-.284.12a5.545 5.545 0 0 1-.186-.044.722.722 0 0 1-.246-.267 1.2 1.2 0 0 1-.126-.427 4.6 4.6 0 0 1-.038-.443 8.759 8.759 0 0 1 .006-.524c.007-.226.01-.38.01-.46 0-.276.006-.577.017-.902.01-.324.02-.581.027-.77.008-.19.011-.39.011-.602 0-.21-.013-.377-.038-.498a1.745 1.745 0 0 0-.115-.35.587.587 0 0 0-.224-.262 1.264 1.264 0 0 0-.366-.147c-.387-.088-.879-.135-1.477-.142-1.355-.014-2.226.073-2.613.262-.153.08-.291.19-.415.328-.132.16-.15.248-.055.262.438.066.747.223.93.47l.065.132c.051.095.102.263.153.503.051.24.084.507.099.798.036.532.036.988 0 1.367-.037.38-.071.674-.104.885a1.774 1.774 0 0 1-.148.514c-.065.132-.109.212-.131.24a.191.191 0 0 1-.055.055c-.094.037-.193.055-.295.055s-.226-.051-.372-.153a2.587 2.587 0 0 1-.453-.421 5.598 5.598 0 0 1-.53-.75c-.197-.32-.402-.699-.613-1.136l-.175-.317c-.109-.204-.258-.501-.448-.891s-.357-.767-.503-1.132a.724.724 0 0 0-.262-.35L4.122 5.2a.744.744 0 0 0-.175-.092 1.178 1.178 0 0 0-.251-.072L.7 5.057c-.306 0-.514.07-.623.208l-.044.066A.354.354 0 0 0 0 5.506c0 .08.022.178.066.295.437 1.028.913 2.019 1.426 2.974.514.955.96 1.724 1.34 2.307.379.583.765 1.133 1.159 1.651s.654.85.782.995c.127.146.227.255.3.328l.274.262c.174.175.432.385.77.63s.715.484 1.127.72c.411.238.89.43 1.437.58.547.15 1.08.21 1.597.18h1.257c.255-.021.448-.101.58-.24l.043-.054a.742.742 0 0 0 .082-.203 1.12 1.12 0 0 0 .039-.3 3.6 3.6 0 0 1 .07-.848c.055-.251.117-.44.187-.568a1.397 1.397 0 0 1 .42-.481.887.887 0 0 1 .088-.039c.175-.058.38-.001.618.17.237.171.459.382.667.634.208.252.457.534.749.847.291.314.546.547.765.7l.219.132c.146.087.335.167.568.24.234.073.438.091.613.055l2.799-.044c.277 0 .492-.046.645-.137.153-.09.244-.191.273-.3a.848.848 0 0 0 .006-.372 1.357 1.357 0 0 0-.077-.29c-.025-.054-.05-.1-.071-.136-.365-.656-1.06-1.462-2.088-2.417l-.022-.021-.011-.011-.011-.011h-.011c-.467-.445-.762-.744-.886-.897-.225-.291-.277-.586-.153-.885.087-.227.415-.704.984-1.434z"/></svg><svg version="1.2" baseProfile="tiny" width="21" height="21" viewBox="0 0 21 21" id="vk-c" x="551" y="551"><path fill="#5B7FA6" d="M18.62 9.518c.298-.386.535-.695.71-.93 1.261-1.676 1.808-2.746 1.64-3.213l-.065-.11c-.044-.065-.157-.126-.34-.18-.181-.055-.415-.064-.699-.028l-3.149.023a.897.897 0 0 0-.36.037l-.055.028-.044.033a.484.484 0 0 0-.12.115.744.744 0 0 0-.11.191 17.831 17.831 0 0 1-1.17 2.46c-.27.452-.517.844-.743 1.175a5.613 5.613 0 0 1-.568.733 3.938 3.938 0 0 1-.416.377c-.124.095-.219.135-.284.12a5.545 5.545 0 0 1-.186-.044.722.722 0 0 1-.246-.267 1.2 1.2 0 0 1-.126-.427 4.6 4.6 0 0 1-.038-.443 8.759 8.759 0 0 1 .006-.524c.007-.226.01-.38.01-.46 0-.276.006-.577.017-.902.01-.324.02-.581.027-.77.008-.19.011-.39.011-.602 0-.21-.013-.377-.038-.498a1.745 1.745 0 0 0-.115-.35.587.587 0 0 0-.224-.262 1.264 1.264 0 0 0-.366-.147c-.387-.088-.879-.135-1.477-.142-1.355-.014-2.226.073-2.613.262-.153.08-.291.19-.415.328-.132.16-.15.248-.055.262.438.066.747.223.93.47l.065.132c.051.095.102.263.153.503.051.24.084.507.099.798.036.532.036.988 0 1.367-.037.38-.071.674-.104.885a1.774 1.774 0 0 1-.148.514c-.065.132-.109.212-.131.24a.191.191 0 0 1-.055.055c-.094.037-.193.055-.295.055s-.226-.051-.372-.153a2.587 2.587 0 0 1-.453-.421 5.598 5.598 0 0 1-.53-.75c-.197-.32-.402-.699-.613-1.136l-.175-.317c-.109-.204-.258-.501-.448-.891s-.357-.767-.503-1.132a.724.724 0 0 0-.262-.35L4.122 5.2a.744.744 0 0 0-.175-.092 1.178 1.178 0 0 0-.251-.072L.7 5.057c-.306 0-.514.07-.623.208l-.044.066A.354.354 0 0 0 0 5.506c0 .08.022.178.066.295.437 1.028.913 2.019 1.426 2.974.514.955.96 1.724 1.34 2.307.379.583.765 1.133 1.159 1.651s.654.85.782.995c.127.146.227.255.3.328l.274.262c.174.175.432.385.77.63s.715.484 1.127.72c.411.238.89.43 1.437.58.547.15 1.08.21 1.597.18h1.257c.255-.021.448-.101.58-.24l.043-.054a.742.742 0 0 0 .082-.203 1.12 1.12 0 0 0 .039-.3 3.6 3.6 0 0 1 .07-.848c.055-.251.117-.44.187-.568a1.397 1.397 0 0 1 .42-.481.887.887 0 0 1 .088-.039c.175-.058.38-.001.618.17.237.171.459.382.667.634.208.252.457.534.749.847.291.314.546.547.765.7l.219.132c.146.087.335.167.568.24.234.073.438.091.613.055l2.799-.044c.277 0 .492-.046.645-.137.153-.09.244-.191.273-.3a.848.848 0 0 0 .006-.372 1.357 1.357 0 0 0-.077-.29c-.025-.054-.05-.1-.071-.136-.365-.656-1.06-1.462-2.088-2.417l-.022-.021-.011-.011-.011-.011h-.011c-.467-.445-.762-.744-.886-.897-.225-.291-.277-.586-.153-.885.087-.227.415-.704.984-1.434z"/></svg><svg viewBox="0 0 21 21" fill-rule="evenodd" clip-rule="evenodd" stroke-linejoin="round" stroke-miterlimit="1.414" width="21" height="21" id="whatsapp" x="572" y="572"><path d="M15.288 12.584c-.26-.13-1.538-.759-1.777-.846-.238-.086-.411-.13-.585.131-.173.26-.671.846-.823 1.019-.152.174-.303.195-.563.065-.26-.13-1.098-.404-2.091-1.29-.773-.69-1.295-1.541-1.447-1.802-.151-.26-.016-.401.114-.53.117-.117.26-.304.39-.456.13-.152.174-.26.26-.434.087-.173.044-.325-.021-.455s-.585-1.41-.802-1.931c-.211-.507-.426-.438-.585-.446A9.862 9.862 0 0 0 6.86 5.6a.955.955 0 0 0-.694.325c-.238.26-.91.89-.91 2.169 0 1.28.932 2.516 1.062 2.69.13.174 1.833 2.8 4.442 3.926.62.268 1.104.428 1.482.548.623.198 1.19.17 1.638.103.499-.075 1.538-.629 1.755-1.236.216-.608.216-1.128.151-1.237-.065-.108-.238-.173-.498-.304m-4.744 6.478h-.004a8.63 8.63 0 0 1-4.402-1.205l-.316-.188-3.273.859.873-3.192-.205-.327a8.634 8.634 0 0 1-1.323-4.603c.002-4.769 3.882-8.648 8.653-8.648 2.31 0 4.482.901 6.115 2.536a8.597 8.597 0 0 1 2.531 6.119c-.002 4.769-3.882 8.649-8.649 8.649m7.361-16.01A10.34 10.34 0 0 0 10.544 0C4.808 0 .14 4.668.137 10.405c0 1.834.479 3.625 1.389 5.203L.05 21l5.517-1.447a10.401 10.401 0 0 0 4.972 1.267h.005c5.735 0 10.403-4.669 10.406-10.406a10.346 10.346 0 0 0-3.045-7.362" fill="#fff"/></svg><svg viewBox="0 0 21 21" fill-rule="evenodd" clip-rule="evenodd" stroke-linejoin="round" stroke-miterlimit="1.414" width="21" height="21" id="youtube" x="593" y="593"><g fill-rule="nonzero"><path d="M13.307 10.646L8.331 7.323l5.674 2.961-.698.362z" fill="#e0e1e0"/><path d="M8.332 13.224l-.001-5.901 5.674 2.961-5.673 2.94zM20.79 6.301s-.205-1.447-.835-2.084c-.798-.836-1.693-.841-2.104-.89-2.938-.212-7.346-.212-7.346-.212h-.01s-4.408 0-7.346.212c-.411.049-1.306.054-2.104.89C.415 4.854.21 6.301.21 6.301S0 8.001 0 9.7v1.593c0 1.7.21 3.399.21 3.399s.205 1.447.835 2.084c.798.837 1.848.81 2.315.898 1.68.161 7.14.211 7.14.211s4.413-.007 7.351-.219c.411-.049 1.306-.053 2.104-.89.63-.637.835-2.084.835-2.084s.21-1.699.21-3.399V9.7c0-1.699-.21-3.399-.21-3.399z" fill="#fff"/></g></svg></svg>